<?xml version="1.0" encoding="utf-8" standalone="no"?>
<!DOCTYPE svg PUBLIC "-//W3C//DTD SVG 1.1//EN"
  "http://www.w3.org/Graphics/SVG/1.1/DTD/svg11.dtd">
<svg xmlns:xlink="http://www.w3.org/1999/xlink" width="262.36pt" height="142.217662pt" viewBox="0 0 262.36 142.217662" xmlns="http://www.w3.org/2000/svg" version="1.1">
 <metadata>
  <rdf:RDF xmlns:dc="http://purl.org/dc/elements/1.1/" xmlns:cc="http://creativecommons.org/ns#" xmlns:rdf="http://www.w3.org/1999/02/22-rdf-syntax-ns#">
   <cc:Work>
    <dc:type rdf:resource="http://purl.org/dc/dcmitype/StillImage"/>
    <dc:date>2026-07-30T13:26:55.015780</dc:date>
    <dc:format>image/svg+xml</dc:format>
    <dc:creator>
     <cc:Agent>
      <dc:title>Matplotlib v3.10.0, https://matplotlib.org/</dc:title>
     </cc:Agent>
    </dc:creator>
   </cc:Work>
  </rdf:RDF>
 </metadata>
 <defs>
  <style type="text/css">*{stroke-linejoin: round; stroke-linecap: butt}</style>
 </defs>
 <g id="figure_1">
  <g id="patch_1">
   <path d="M -0 142.217662 
L 262.36 142.217662 
L 262.36 -0 
L -0 -0 
z
" style="fill: #ffffff"/>
  </g>
  <g id="axes_1">
   <g id="patch_2">
    <path d="M 46 112.2336 
L 260.2 112.2336 
L 260.2 2.16 
L 46 2.16 
z
" style="fill: #ffffff"/>
   </g>
   <g id="matplotlib.axis_1">
    <g id="xtick_1">
     <g id="line2d_1">
      <path d="M 46 112.2336 
L 46 2.16 
" clip-path="url(#p3b24d9148b)" style="fill: none; stroke-dasharray: 0.74,0.32; stroke-dashoffset: 0; stroke: #cccccc; stroke-opacity: 0.5; stroke-width: 0.2"/>
     </g>
     <g id="line2d_2">
      <defs>
       <path id="mcf60cd2c62" d="M 0 0 
L 0 -3.5 
" style="stroke: #000000; stroke-width: 0.6"/>
      </defs>
      <g>
       <use xlink:href="#mcf60cd2c62" x="46" y="112.2336" style="stroke: #000000; stroke-width: 0.6"/>
      </g>
     </g>
     <g id="text_1">
      <!-- 0 -->
      <g transform="translate(42.81875 123.332037) scale(0.1 -0.1)">
       <defs>
        <path id="DejaVuSerif-30" d="M 2034 219 
Q 2513 219 2750 744 
Q 2988 1269 2988 2328 
Q 2988 3391 2750 3916 
Q 2513 4441 2034 4441 
Q 1556 4441 1318 3916 
Q 1081 3391 1081 2328 
Q 1081 1269 1318 744 
Q 1556 219 2034 219 
z
M 2034 -91 
Q 1275 -91 848 546 
Q 422 1184 422 2328 
Q 422 3475 848 4112 
Q 1275 4750 2034 4750 
Q 2797 4750 3222 4112 
Q 3647 3475 3647 2328 
Q 3647 1184 3222 546 
Q 2797 -91 2034 -91 
z
" transform="scale(0.015625)"/>
       </defs>
       <use xlink:href="#DejaVuSerif-30"/>
      </g>
     </g>
    </g>
    <g id="xtick_2">
     <g id="line2d_3">
      <path d="M 100.509018 112.2336 
L 100.509018 2.16 
" clip-path="url(#p3b24d9148b)" style="fill: none; stroke-dasharray: 0.74,0.32; stroke-dashoffset: 0; stroke: #cccccc; stroke-opacity: 0.5; stroke-width: 0.2"/>
     </g>
     <g id="line2d_4">
      <g>
       <use xlink:href="#mcf60cd2c62" x="100.509018" y="112.2336" style="stroke: #000000; stroke-width: 0.6"/>
      </g>
     </g>
     <g id="text_2">
      <!-- 20 -->
      <g transform="translate(94.146518 123.332037) scale(0.1 -0.1)">
       <defs>
        <path id="DejaVuSerif-32" d="M 819 3553 
L 469 3553 
L 469 4384 
Q 803 4563 1142 4656 
Q 1481 4750 1806 4750 
Q 2534 4750 2956 4397 
Q 3378 4044 3378 3438 
Q 3378 2753 2422 1800 
Q 2347 1728 2309 1691 
L 1131 513 
L 3078 513 
L 3078 1088 
L 3444 1088 
L 3444 0 
L 434 0 
L 434 341 
L 1850 1753 
Q 2319 2222 2519 2614 
Q 2719 3006 2719 3438 
Q 2719 3909 2473 4175 
Q 2228 4441 1797 4441 
Q 1350 4441 1106 4219 
Q 863 3997 819 3553 
z
" transform="scale(0.015625)"/>
       </defs>
       <use xlink:href="#DejaVuSerif-32"/>
       <use xlink:href="#DejaVuSerif-30" transform="translate(63.623047 0)"/>
      </g>
     </g>
    </g>
    <g id="xtick_3">
     <g id="line2d_5">
      <path d="M 155.018036 112.2336 
L 155.018036 2.16 
" clip-path="url(#p3b24d9148b)" style="fill: none; stroke-dasharray: 0.74,0.32; stroke-dashoffset: 0; stroke: #cccccc; stroke-opacity: 0.5; stroke-width: 0.2"/>
     </g>
     <g id="line2d_6">
      <g>
       <use xlink:href="#mcf60cd2c62" x="155.018036" y="112.2336" style="stroke: #000000; stroke-width: 0.6"/>
      </g>
     </g>
     <g id="text_3">
      <!-- 40 -->
      <g transform="translate(148.655536 123.332037) scale(0.1 -0.1)">
       <defs>
        <path id="DejaVuSerif-34" d="M 2234 1581 
L 2234 4063 
L 641 1581 
L 2234 1581 
z
M 3609 0 
L 1484 0 
L 1484 331 
L 2234 331 
L 2234 1247 
L 197 1247 
L 197 1588 
L 2241 4750 
L 2859 4750 
L 2859 1581 
L 3750 1581 
L 3750 1247 
L 2859 1247 
L 2859 331 
L 3609 331 
L 3609 0 
z
" transform="scale(0.015625)"/>
       </defs>
       <use xlink:href="#DejaVuSerif-34"/>
       <use xlink:href="#DejaVuSerif-30" transform="translate(63.623047 0)"/>
      </g>
     </g>
    </g>
    <g id="xtick_4">
     <g id="line2d_7">
      <path d="M 209.527054 112.2336 
L 209.527054 2.16 
" clip-path="url(#p3b24d9148b)" style="fill: none; stroke-dasharray: 0.74,0.32; stroke-dashoffset: 0; stroke: #cccccc; stroke-opacity: 0.5; stroke-width: 0.2"/>
     </g>
     <g id="line2d_8">
      <g>
       <use xlink:href="#mcf60cd2c62" x="209.527054" y="112.2336" style="stroke: #000000; stroke-width: 0.6"/>
      </g>
     </g>
     <g id="text_4">
      <!-- 60 -->
      <g transform="translate(203.164554 123.332037) scale(0.1 -0.1)">
       <defs>
        <path id="DejaVuSerif-36" d="M 2094 219 
Q 2534 219 2771 542 
Q 3009 866 3009 1472 
Q 3009 2078 2771 2401 
Q 2534 2725 2094 2725 
Q 1647 2725 1412 2412 
Q 1178 2100 1178 1509 
Q 1178 888 1415 553 
Q 1653 219 2094 219 
z
M 1075 2569 
Q 1288 2803 1556 2918 
Q 1825 3034 2163 3034 
Q 2859 3034 3264 2615 
Q 3669 2197 3669 1472 
Q 3669 763 3233 336 
Q 2797 -91 2069 -91 
Q 1278 -91 853 498 
Q 428 1088 428 2181 
Q 428 3406 931 4078 
Q 1434 4750 2350 4750 
Q 2597 4750 2869 4703 
Q 3141 4656 3425 4563 
L 3425 3794 
L 3072 3794 
Q 3034 4109 2831 4275 
Q 2628 4441 2284 4441 
Q 1678 4441 1381 3981 
Q 1084 3522 1075 2569 
z
" transform="scale(0.015625)"/>
       </defs>
       <use xlink:href="#DejaVuSerif-36"/>
       <use xlink:href="#DejaVuSerif-30" transform="translate(63.623047 0)"/>
      </g>
     </g>
    </g>
    <g id="text_5">
     <!-- $t$ (s) -->
     <g transform="translate(142.705 137.770006) scale(0.11 -0.11)">
      <defs>
       <path id="STIXGeneral-Italic-74" d="M 1894 2739 
L 1862 2534 
L 1325 2534 
L 768 435 
Q 755 384 755 346 
Q 755 243 851 243 
Q 928 243 1030 342 
Q 1133 442 1370 749 
L 1453 704 
Q 1158 256 969 93 
Q 781 -70 538 -70 
Q 243 -70 243 166 
Q 243 230 346 640 
L 845 2534 
L 365 2534 
L 358 2573 
Q 358 2688 570 2733 
Q 730 2771 992 2979 
Q 1254 3187 1421 3437 
Q 1459 3494 1510 3494 
Q 1568 3494 1568 3443 
Q 1568 3411 1562 3398 
L 1382 2739 
L 1894 2739 
z
" transform="scale(0.015625)"/>
       <path id="DejaVuSerif-20" transform="scale(0.015625)"/>
       <path id="DejaVuSerif-28" d="M 2041 -997 
Q 1281 -656 893 83 
Q 506 822 506 1931 
Q 506 3044 893 3783 
Q 1281 4522 2041 4863 
L 2041 4556 
Q 1559 4225 1350 3623 
Q 1141 3022 1141 1931 
Q 1141 844 1350 242 
Q 1559 -359 2041 -691 
L 2041 -997 
z
" transform="scale(0.015625)"/>
       <path id="DejaVuSerif-73" d="M 359 184 
L 359 959 
L 691 959 
Q 703 588 923 403 
Q 1144 219 1575 219 
Q 1963 219 2166 364 
Q 2369 509 2369 788 
Q 2369 1006 2220 1140 
Q 2072 1275 1594 1428 
L 1178 1569 
Q 750 1706 558 1912 
Q 366 2119 366 2438 
Q 366 2894 700 3153 
Q 1034 3413 1625 3413 
Q 1888 3413 2178 3344 
Q 2469 3275 2778 3144 
L 2778 2419 
L 2447 2419 
Q 2434 2741 2221 2922 
Q 2009 3103 1644 3103 
Q 1281 3103 1095 2975 
Q 909 2847 909 2591 
Q 909 2381 1050 2254 
Q 1191 2128 1613 1997 
L 2069 1856 
Q 2541 1709 2748 1489 
Q 2956 1269 2956 922 
Q 2956 450 2595 179 
Q 2234 -91 1600 -91 
Q 1278 -91 972 -22 
Q 666 47 359 184 
z
" transform="scale(0.015625)"/>
       <path id="DejaVuSerif-29" d="M 453 -997 
L 453 -691 
Q 934 -359 1145 242 
Q 1356 844 1356 1931 
Q 1356 3022 1145 3623 
Q 934 4225 453 4556 
L 453 4863 
Q 1216 4522 1603 3783 
Q 1991 3044 1991 1931 
Q 1991 822 1603 83 
Q 1216 -656 453 -997 
z
" transform="scale(0.015625)"/>
      </defs>
      <use xlink:href="#STIXGeneral-Italic-74" transform="translate(0 0.015625)"/>
      <use xlink:href="#DejaVuSerif-20" transform="translate(27.799988 0.015625)"/>
      <use xlink:href="#DejaVuSerif-28" transform="translate(59.587097 0.015625)"/>
      <use xlink:href="#DejaVuSerif-73" transform="translate(98.600769 0.015625)"/>
      <use xlink:href="#DejaVuSerif-29" transform="translate(149.919128 0.015625)"/>
     </g>
    </g>
   </g>
   <g id="matplotlib.axis_2">
    <g id="ytick_1">
     <g id="line2d_9">
      <path d="M 46 107.376166 
L 260.2 107.376166 
" clip-path="url(#p3b24d9148b)" style="fill: none; stroke-dasharray: 0.74,0.32; stroke-dashoffset: 0; stroke: #cccccc; stroke-opacity: 0.5; stroke-width: 0.2"/>
     </g>
     <g id="line2d_10">
      <defs>
       <path id="mc3fd4d8fb0" d="M 0 0 
L 3.5 0 
" style="stroke: #000000; stroke-width: 0.6"/>
      </defs>
      <g>
       <use xlink:href="#mc3fd4d8fb0" x="46" y="107.376166" style="stroke: #000000; stroke-width: 0.6"/>
      </g>
     </g>
     <g id="text_6">
      <!-- 0 -->
      <g transform="translate(36.1375 111.175385) scale(0.1 -0.1)">
       <use xlink:href="#DejaVuSerif-30"/>
      </g>
     </g>
    </g>
    <g id="ytick_2">
     <g id="line2d_11">
      <path d="M 46 83.549359 
L 260.2 83.549359 
" clip-path="url(#p3b24d9148b)" style="fill: none; stroke-dasharray: 0.74,0.32; stroke-dashoffset: 0; stroke: #cccccc; stroke-opacity: 0.5; stroke-width: 0.2"/>
     </g>
     <g id="line2d_12">
      <g>
       <use xlink:href="#mc3fd4d8fb0" x="46" y="83.549359" style="stroke: #000000; stroke-width: 0.6"/>
      </g>
     </g>
     <g id="text_7">
      <!-- 500 -->
      <g transform="translate(23.4125 87.348578) scale(0.1 -0.1)">
       <defs>
        <path id="DejaVuSerif-35" d="M 3219 4666 
L 3219 4153 
L 1081 4153 
L 1081 2816 
Q 1244 2928 1461 2984 
Q 1678 3041 1947 3041 
Q 2703 3041 3140 2622 
Q 3578 2203 3578 1478 
Q 3578 738 3136 323 
Q 2694 -91 1894 -91 
Q 1572 -91 1234 -12 
Q 897 66 544 225 
L 544 1131 
L 897 1131 
Q 925 688 1179 453 
Q 1434 219 1894 219 
Q 2388 219 2653 544 
Q 2919 869 2919 1478 
Q 2919 2084 2655 2407 
Q 2391 2731 1894 2731 
Q 1613 2731 1398 2631 
Q 1184 2531 1019 2322 
L 750 2322 
L 750 4666 
L 3219 4666 
z
" transform="scale(0.015625)"/>
       </defs>
       <use xlink:href="#DejaVuSerif-35"/>
       <use xlink:href="#DejaVuSerif-30" transform="translate(63.623047 0)"/>
       <use xlink:href="#DejaVuSerif-30" transform="translate(127.246094 0)"/>
      </g>
     </g>
    </g>
    <g id="ytick_3">
     <g id="line2d_13">
      <path d="M 46 59.722553 
L 260.2 59.722553 
" clip-path="url(#p3b24d9148b)" style="fill: none; stroke-dasharray: 0.74,0.32; stroke-dashoffset: 0; stroke: #cccccc; stroke-opacity: 0.5; stroke-width: 0.2"/>
     </g>
     <g id="line2d_14">
      <g>
       <use xlink:href="#mc3fd4d8fb0" x="46" y="59.722553" style="stroke: #000000; stroke-width: 0.6"/>
      </g>
     </g>
     <g id="text_8">
      <!-- 1000 -->
      <g transform="translate(17.05 63.521772) scale(0.1 -0.1)">
       <defs>
        <path id="DejaVuSerif-31" d="M 909 0 
L 909 331 
L 1722 331 
L 1722 4213 
L 781 3603 
L 781 4013 
L 1919 4750 
L 2350 4750 
L 2350 331 
L 3163 331 
L 3163 0 
L 909 0 
z
" transform="scale(0.015625)"/>
       </defs>
       <use xlink:href="#DejaVuSerif-31"/>
       <use xlink:href="#DejaVuSerif-30" transform="translate(63.623047 0)"/>
       <use xlink:href="#DejaVuSerif-30" transform="translate(127.246094 0)"/>
       <use xlink:href="#DejaVuSerif-30" transform="translate(190.869141 0)"/>
      </g>
     </g>
    </g>
    <g id="ytick_4">
     <g id="line2d_15">
      <path d="M 46 35.895746 
L 260.2 35.895746 
" clip-path="url(#p3b24d9148b)" style="fill: none; stroke-dasharray: 0.74,0.32; stroke-dashoffset: 0; stroke: #cccccc; stroke-opacity: 0.5; stroke-width: 0.2"/>
     </g>
     <g id="line2d_16">
      <g>
       <use xlink:href="#mc3fd4d8fb0" x="46" y="35.895746" style="stroke: #000000; stroke-width: 0.6"/>
      </g>
     </g>
     <g id="text_9">
      <!-- 1500 -->
      <g transform="translate(17.05 39.694965) scale(0.1 -0.1)">
       <use xlink:href="#DejaVuSerif-31"/>
       <use xlink:href="#DejaVuSerif-35" transform="translate(63.623047 0)"/>
       <use xlink:href="#DejaVuSerif-30" transform="translate(127.246094 0)"/>
       <use xlink:href="#DejaVuSerif-30" transform="translate(190.869141 0)"/>
      </g>
     </g>
    </g>
    <g id="ytick_5">
     <g id="line2d_17">
      <path d="M 46 12.06894 
L 260.2 12.06894 
" clip-path="url(#p3b24d9148b)" style="fill: none; stroke-dasharray: 0.74,0.32; stroke-dashoffset: 0; stroke: #cccccc; stroke-opacity: 0.5; stroke-width: 0.2"/>
     </g>
     <g id="line2d_18">
      <g>
       <use xlink:href="#mc3fd4d8fb0" x="46" y="12.06894" style="stroke: #000000; stroke-width: 0.6"/>
      </g>
     </g>
     <g id="text_10">
      <!-- 2000 -->
      <g transform="translate(17.05 15.868159) scale(0.1 -0.1)">
       <use xlink:href="#DejaVuSerif-32"/>
       <use xlink:href="#DejaVuSerif-30" transform="translate(63.623047 0)"/>
       <use xlink:href="#DejaVuSerif-30" transform="translate(127.246094 0)"/>
       <use xlink:href="#DejaVuSerif-30" transform="translate(190.869141 0)"/>
      </g>
     </g>
    </g>
    <g id="text_11">
     <!-- Range-to-go $D$ (m) -->
     <g transform="translate(10.52 108.0168) rotate(-90) scale(0.11 -0.11)">
      <defs>
       <path id="DejaVuSerif-52" d="M 3066 2316 
Q 3284 2256 3442 2114 
Q 3600 1972 3725 1716 
L 4403 331 
L 4972 331 
L 4972 0 
L 3872 0 
L 3144 1484 
Q 2934 1916 2759 2042 
Q 2584 2169 2278 2169 
L 1581 2169 
L 1581 331 
L 2241 331 
L 2241 0 
L 353 0 
L 353 331 
L 947 331 
L 947 4331 
L 353 4331 
L 353 4666 
L 2719 4666 
Q 3400 4666 3770 4341 
Q 4141 4016 4141 3419 
Q 4141 2938 3870 2661 
Q 3600 2384 3066 2316 
z
M 1581 2503 
L 2503 2503 
Q 2975 2503 3200 2726 
Q 3425 2950 3425 3419 
Q 3425 3888 3200 4109 
Q 2975 4331 2503 4331 
L 1581 4331 
L 1581 2503 
z
" transform="scale(0.015625)"/>
       <path id="DejaVuSerif-61" d="M 2547 1044 
L 2547 1747 
L 1806 1747 
Q 1378 1747 1168 1562 
Q 959 1378 959 997 
Q 959 650 1171 447 
Q 1384 244 1747 244 
Q 2106 244 2326 466 
Q 2547 688 2547 1044 
z
M 3122 2075 
L 3122 331 
L 3634 331 
L 3634 0 
L 2547 0 
L 2547 359 
Q 2356 128 2106 18 
Q 1856 -91 1522 -91 
Q 969 -91 644 203 
Q 319 497 319 997 
Q 319 1513 691 1797 
Q 1063 2081 1741 2081 
L 2547 2081 
L 2547 2309 
Q 2547 2688 2317 2895 
Q 2088 3103 1672 3103 
Q 1328 3103 1125 2947 
Q 922 2791 872 2484 
L 575 2484 
L 575 3156 
Q 875 3284 1158 3348 
Q 1441 3413 1709 3413 
Q 2400 3413 2761 3070 
Q 3122 2728 3122 2075 
z
" transform="scale(0.015625)"/>
       <path id="DejaVuSerif-6e" d="M 263 0 
L 263 331 
L 781 331 
L 781 2988 
L 231 2988 
L 231 3322 
L 1356 3322 
L 1356 2731 
Q 1516 3069 1770 3241 
Q 2025 3413 2363 3413 
Q 2913 3413 3172 3097 
Q 3431 2781 3431 2113 
L 3431 331 
L 3944 331 
L 3944 0 
L 2356 0 
L 2356 331 
L 2853 331 
L 2853 1931 
Q 2853 2541 2703 2767 
Q 2553 2994 2175 2994 
Q 1775 2994 1565 2701 
Q 1356 2409 1356 1850 
L 1356 331 
L 1856 331 
L 1856 0 
L 263 0 
z
" transform="scale(0.015625)"/>
       <path id="DejaVuSerif-67" d="M 3359 2988 
L 3359 72 
Q 3359 -644 2965 -1033 
Q 2572 -1422 1844 -1422 
Q 1516 -1422 1216 -1362 
Q 916 -1303 641 -1184 
L 641 -488 
L 941 -488 
Q 997 -813 1206 -963 
Q 1416 -1113 1806 -1113 
Q 2313 -1113 2548 -827 
Q 2784 -541 2784 72 
L 2784 519 
Q 2616 206 2355 57 
Q 2094 -91 1709 -91 
Q 1097 -91 708 395 
Q 319 881 319 1663 
Q 319 2444 706 2928 
Q 1094 3413 1709 3413 
Q 2094 3413 2355 3264 
Q 2616 3116 2784 2803 
L 2784 3322 
L 3909 3322 
L 3909 2988 
L 3359 2988 
z
M 2784 1825 
Q 2784 2422 2554 2737 
Q 2325 3053 1888 3053 
Q 1444 3053 1217 2703 
Q 991 2353 991 1663 
Q 991 975 1217 622 
Q 1444 269 1888 269 
Q 2325 269 2554 583 
Q 2784 897 2784 1497 
L 2784 1825 
z
" transform="scale(0.015625)"/>
       <path id="DejaVuSerif-65" d="M 3469 1600 
L 991 1600 
L 991 1575 
Q 991 903 1244 561 
Q 1497 219 1991 219 
Q 2369 219 2611 417 
Q 2853 616 2950 1006 
L 3413 1006 
Q 3275 459 2904 184 
Q 2534 -91 1931 -91 
Q 1203 -91 761 389 
Q 319 869 319 1663 
Q 319 2450 753 2931 
Q 1188 3413 1894 3413 
Q 2647 3413 3050 2948 
Q 3453 2484 3469 1600 
z
M 2791 1931 
Q 2772 2513 2545 2808 
Q 2319 3103 1894 3103 
Q 1497 3103 1269 2806 
Q 1041 2509 991 1931 
L 2791 1931 
z
" transform="scale(0.015625)"/>
       <path id="DejaVuSerif-2d" d="M 281 1959 
L 1881 1959 
L 1881 1472 
L 281 1472 
L 281 1959 
z
" transform="scale(0.015625)"/>
       <path id="DejaVuSerif-74" d="M 691 2988 
L 184 2988 
L 184 3322 
L 691 3322 
L 691 4353 
L 1269 4353 
L 1269 3322 
L 2350 3322 
L 2350 2988 
L 1269 2988 
L 1269 878 
Q 1269 456 1350 337 
Q 1431 219 1650 219 
Q 1875 219 1978 351 
Q 2081 484 2088 781 
L 2522 781 
Q 2497 328 2275 118 
Q 2053 -91 1600 -91 
Q 1103 -91 897 129 
Q 691 350 691 878 
L 691 2988 
z
" transform="scale(0.015625)"/>
       <path id="DejaVuSerif-6f" d="M 1925 219 
Q 2388 219 2623 584 
Q 2859 950 2859 1663 
Q 2859 2375 2623 2739 
Q 2388 3103 1925 3103 
Q 1463 3103 1227 2739 
Q 991 2375 991 1663 
Q 991 950 1228 584 
Q 1466 219 1925 219 
z
M 1925 -91 
Q 1200 -91 759 389 
Q 319 869 319 1663 
Q 319 2456 758 2934 
Q 1197 3413 1925 3413 
Q 2653 3413 3092 2934 
Q 3531 2456 3531 1663 
Q 3531 869 3092 389 
Q 2653 -91 1925 -91 
z
" transform="scale(0.015625)"/>
       <path id="STIXGeneral-Italic-44" d="M 838 4179 
L 2611 4179 
Q 3469 4179 3974 3731 
Q 4480 3283 4480 2458 
Q 4480 1325 3456 531 
Q 2778 0 1594 0 
L -51 0 
L -51 102 
Q 224 154 310 230 
Q 397 307 474 589 
L 1254 3437 
Q 1325 3686 1325 3814 
Q 1325 3949 1222 4009 
Q 1120 4070 838 4077 
L 838 4179 
z
M 1984 3738 
L 1229 1037 
Q 1088 525 1088 429 
Q 1088 192 1523 192 
Q 2470 192 3066 768 
Q 3398 1088 3584 1597 
Q 3770 2106 3770 2611 
Q 3770 3386 3270 3763 
Q 2970 3987 2432 3987 
Q 2227 3987 2128 3939 
Q 2029 3891 1984 3738 
z
" transform="scale(0.015625)"/>
       <path id="DejaVuSerif-6d" d="M 3316 2675 
Q 3481 3041 3739 3227 
Q 3997 3413 4341 3413 
Q 4863 3413 5119 3089 
Q 5375 2766 5375 2113 
L 5375 331 
L 5894 331 
L 5894 0 
L 4300 0 
L 4300 331 
L 4800 331 
L 4800 2047 
Q 4800 2556 4650 2772 
Q 4500 2988 4153 2988 
Q 3769 2988 3567 2697 
Q 3366 2406 3366 1850 
L 3366 331 
L 3866 331 
L 3866 0 
L 2291 0 
L 2291 331 
L 2791 331 
L 2791 2069 
Q 2791 2566 2641 2777 
Q 2491 2988 2144 2988 
Q 1759 2988 1557 2697 
Q 1356 2406 1356 1850 
L 1356 331 
L 1856 331 
L 1856 0 
L 263 0 
L 263 331 
L 781 331 
L 781 2994 
L 231 2994 
L 231 3322 
L 1356 3322 
L 1356 2731 
Q 1516 3063 1762 3238 
Q 2009 3413 2322 3413 
Q 2709 3413 2968 3220 
Q 3228 3028 3316 2675 
z
" transform="scale(0.015625)"/>
      </defs>
      <use xlink:href="#DejaVuSerif-52" transform="translate(0 0.015625)"/>
      <use xlink:href="#DejaVuSerif-61" transform="translate(75.292969 0.015625)"/>
      <use xlink:href="#DejaVuSerif-6e" transform="translate(134.912109 0.015625)"/>
      <use xlink:href="#DejaVuSerif-67" transform="translate(199.316406 0.015625)"/>
      <use xlink:href="#DejaVuSerif-65" transform="translate(263.330078 0.015625)"/>
      <use xlink:href="#DejaVuSerif-2d" transform="translate(322.509766 0.015625)"/>
      <use xlink:href="#DejaVuSerif-74" transform="translate(356.298828 0.015625)"/>
      <use xlink:href="#DejaVuSerif-6f" transform="translate(396.484375 0.015625)"/>
      <use xlink:href="#DejaVuSerif-2d" transform="translate(456.689453 0.015625)"/>
      <use xlink:href="#DejaVuSerif-67" transform="translate(490.478516 0.015625)"/>
      <use xlink:href="#DejaVuSerif-6f" transform="translate(554.492188 0.015625)"/>
      <use xlink:href="#DejaVuSerif-20" transform="translate(614.697266 0.015625)"/>
      <use xlink:href="#STIXGeneral-Italic-44" transform="translate(646.484375 0.015625)"/>
      <use xlink:href="#DejaVuSerif-20" transform="translate(718.684357 0.015625)"/>
      <use xlink:href="#DejaVuSerif-28" transform="translate(750.471466 0.015625)"/>
      <use xlink:href="#DejaVuSerif-6d" transform="translate(789.485138 0.015625)"/>
      <use xlink:href="#DejaVuSerif-29" transform="translate(884.309357 0.015625)"/>
     </g>
    </g>
   </g>
   <g id="patch_3">
    <path d="M 46 112.2336 
L 46 2.16 
" style="fill: none; stroke: #000000; stroke-width: 0.8; stroke-linejoin: miter; stroke-linecap: square"/>
   </g>
   <g id="patch_4">
    <path d="M 260.2 112.2336 
L 260.2 2.16 
" style="fill: none; stroke: #000000; stroke-width: 0.8; stroke-linejoin: miter; stroke-linecap: square"/>
   </g>
   <g id="patch_5">
    <path d="M 46 112.2336 
L 260.2 112.2336 
" style="fill: none; stroke: #000000; stroke-width: 0.8; stroke-linejoin: miter; stroke-linecap: square"/>
   </g>
   <g id="patch_6">
    <path d="M 46 2.16 
L 260.2 2.16 
" style="fill: none; stroke: #000000; stroke-width: 0.8; stroke-linejoin: miter; stroke-linecap: square"/>
   </g>
   <g id="line2d_19">
    <path d="M 46 8.568597 
L 47.635271 9.839982 
L 49.270541 11.397826 
L 51.178357 13.53518 
L 53.903808 16.980397 
L 60.853707 25.850084 
L 65.350701 31.322114 
L 70.392786 36.997784 
L 80.204409 48.220281 
L 86.609218 55.914268 
L 92.877756 63.803353 
L 99.827655 72.918303 
L 111.002004 88.005055 
L 124.901804 106.70421 
L 124.901804 106.70421 
" clip-path="url(#p3b24d9148b)" style="fill: none; stroke: #1f77b4; stroke-opacity: 0.8; stroke-width: 0.8; stroke-linecap: square"/>
   </g>
   <g id="line2d_20">
    <path d="M 46 8.720764 
L 47.635271 10.234728 
L 49.543086 12.338202 
L 51.859719 15.224111 
L 55.130261 19.704639 
L 59.8998 26.63397 
L 66.032064 35.468649 
L 72.028056 43.700001 
L 90.833667 69.174708 
L 97.238477 78.47616 
L 111.002004 98.551155 
L 117.134269 107.061082 
L 117.406814 107.195904 
L 118.088176 106.305094 
L 122.448898 100.4025 
L 125.038076 97.267762 
L 127.490982 94.657718 
L 129.53507 92.805522 
L 131.579158 91.321465 
L 133.759519 90.019688 
L 135.93988 88.995054 
L 138.529058 88.059746 
L 145.61523 85.699473 
L 148.476954 84.38521 
L 151.066132 82.945074 
L 154.064128 80.990361 
L 180.092184 63.737783 
L 182.136273 62.781839 
L 183.907816 62.198765 
L 185.543086 61.891009 
L 187.178357 61.819908 
L 188.677355 61.969886 
L 190.176353 62.331474 
L 191.811623 62.959907 
L 193.583166 63.889407 
L 195.627255 65.230351 
L 198.08016 67.114508 
L 201.078156 69.71562 
L 203.39479 71.597009 
L 204.893788 72.547215 
L 206.529058 73.291755 
L 208.028056 73.749436 
L 209.390782 73.929185 
L 210.753507 73.885783 
L 212.252505 73.597338 
L 213.751503 73.075491 
L 215.523046 72.208835 
L 217.703407 70.881216 
L 224.653307 66.460889 
L 226.561122 65.595324 
L 228.332665 65.033621 
L 229.967936 64.747255 
L 231.603206 64.696038 
L 233.102204 64.864679 
L 234.737475 65.285946 
L 236.372745 65.943021 
L 238.144289 66.892679 
L 240.188377 68.239495 
L 242.913828 70.32317 
L 248.501002 74.758031 
L 250 75.561622 
L 250 75.561622 
" clip-path="url(#p3b24d9148b)" style="fill: none; stroke: #aec7e8; stroke-opacity: 0.8; stroke-width: 0.8; stroke-linecap: square"/>
   </g>
   <g id="line2d_21">
    <path d="M 46 7.163345 
L 48.452906 9.434774 
L 50.633267 11.728163 
L 53.222445 14.807195 
L 57.446894 19.750111 
L 61.807615 24.455955 
L 65.759519 28.385808 
L 69.711423 32.00116 
L 73.935872 35.544974 
L 78.432866 39.011938 
L 85.246493 43.931872 
L 90.152305 47.58298 
L 93.422846 50.292653 
L 96.557114 53.18513 
L 99.691383 56.391834 
L 103.234469 60.33697 
L 107.867735 65.85844 
L 120.541082 81.125463 
L 125.310621 86.423106 
L 129.943888 91.254653 
L 134.849699 96.061585 
L 140.573146 101.334981 
L 147.114228 107.009197 
L 147.523046 107.22213 
L 147.931864 106.985793 
L 152.837675 103.246944 
L 155.426854 101.649266 
L 157.87976 100.379598 
L 160.196393 99.431983 
L 162.649299 98.682056 
L 165.102204 98.164836 
L 167.418838 97.897776 
L 169.871743 97.842953 
L 172.324649 98.009761 
L 175.0501 98.427569 
L 178.320641 99.168546 
L 183.635271 100.38708 
L 190.448898 101.721249 
L 204.076152 104.098712 
L 222.200401 107.176267 
L 222.200401 107.176267 
" clip-path="url(#p3b24d9148b)" style="fill: none; stroke: #ff7f0e; stroke-opacity: 0.8; stroke-width: 0.8; stroke-linecap: square"/>
   </g>
   <g id="line2d_22">
    <path d="M 46 8.069571 
L 47.498998 9.241351 
L 49.134269 10.838323 
L 51.042084 13.049401 
L 54.58517 17.641638 
L 61.53507 26.766053 
L 66.304609 32.755527 
L 83.066132 52.994779 
L 89.607214 61.474229 
L 96.557114 70.850759 
L 106.368737 84.501145 
L 122.312625 106.851562 
L 122.312625 106.851562 
" clip-path="url(#p3b24d9148b)" style="fill: none; stroke: #ffbb78; stroke-opacity: 0.8; stroke-width: 0.8; stroke-linecap: square"/>
   </g>
   <g id="line2d_23">
    <path d="M 46 10.907442 
L 47.771543 12.796717 
L 49.951904 15.485178 
L 53.222445 19.847054 
L 57.446894 25.933297 
L 63.306613 34.270878 
L 75.97996 51.687071 
L 84.973948 64.487944 
L 94.240481 78.078615 
L 112.637275 105.599915 
L 113.45491 106.82019 
L 113.45491 106.82019 
" clip-path="url(#p3b24d9148b)" style="fill: none; stroke: #2ca02c; stroke-opacity: 0.8; stroke-width: 0.8; stroke-linecap: square"/>
   </g>
   <g id="line2d_24">
    <path d="M 46 10.322703 
L 47.498998 11.27504 
L 48.997996 12.492179 
L 50.633267 14.115025 
L 52.677355 16.483481 
L 55.539078 20.179591 
L 70.529058 40.144619 
L 79.250501 51.055673 
L 85.655311 59.562575 
L 92.06012 68.442898 
L 100.372745 80.361718 
L 118.496994 106.833249 
L 118.496994 106.833249 
" clip-path="url(#p3b24d9148b)" style="fill: none; stroke: #98df8a; stroke-opacity: 0.8; stroke-width: 0.8; stroke-linecap: square"/>
   </g>
   <g id="line2d_25">
    <path d="M 46 11.088613 
L 47.907816 13.048447 
L 50.088176 15.619538 
L 52.541082 18.840877 
L 65.214429 35.835885 
L 82.657315 58.253931 
L 89.87976 67.974193 
L 97.783567 78.987009 
L 117.270541 106.685916 
L 117.270541 106.685916 
" clip-path="url(#p3b24d9148b)" style="fill: none; stroke: #d62728; stroke-opacity: 0.8; stroke-width: 0.8; stroke-linecap: square"/>
   </g>
   <g id="line2d_26">
    <path d="M 46 7.720717 
L 49.134269 11.381857 
L 51.995992 15.038736 
L 66.440882 34.295247 
L 76.388778 46.802549 
L 84.701403 57.384717 
L 91.378758 66.252329 
L 98.737475 76.433454 
L 116.316633 100.912282 
L 120.677355 106.803784 
L 120.677355 106.803784 
" clip-path="url(#p3b24d9148b)" style="fill: none; stroke: #ff9896; stroke-opacity: 0.8; stroke-width: 0.8; stroke-linecap: square"/>
   </g>
   <g id="line2d_27">
    <path d="M 46 8.125053 
L 47.362725 9.016576 
L 48.861723 10.285024 
L 50.496994 11.984273 
L 52.541082 14.449994 
L 64.396794 29.441025 
L 67.93988 33.476525 
L 75.571142 42.173481 
L 82.793587 50.701961 
L 89.062124 58.441038 
L 95.875752 67.2461 
L 103.915832 78.030456 
L 125.038076 106.776745 
L 125.038076 106.776745 
" clip-path="url(#p3b24d9148b)" style="fill: none; stroke: #9467bd; stroke-opacity: 0.8; stroke-width: 0.8; stroke-linecap: square"/>
   </g>
   <g id="line2d_28">
    <path d="M 46 8.875882 
L 47.907816 10.725336 
L 49.815631 12.885498 
L 52.268537 16.048437 
L 56.356713 21.811591 
L 68.757515 39.608488 
L 75.43487 48.570327 
L 87.426854 64.640778 
L 93.967936 73.916988 
L 104.869739 89.902266 
L 112.637275 101.009965 
L 116.861723 106.868573 
L 116.861723 106.868573 
" clip-path="url(#p3b24d9148b)" style="fill: none; stroke: #c5b0d5; stroke-opacity: 0.8; stroke-width: 0.8; stroke-linecap: square"/>
   </g>
   <g id="line2d_29">
    <path d="M 46 7.462488 
L 49.815631 11.158714 
L 52.132265 13.722326 
L 59.354709 22.061966 
L 63.306613 26.195155 
L 67.258517 30.00766 
L 71.210421 33.509836 
L 75.298597 36.841063 
L 80.068136 40.438242 
L 91.651303 49.018098 
L 94.785571 51.745067 
L 97.783567 54.641642 
L 101.054108 58.111004 
L 105.006012 62.649646 
L 111.002004 69.930368 
L 118.769539 79.290695 
L 123.811623 84.99895 
L 128.581162 90.057115 
L 133.078156 94.530956 
L 138.256513 99.391932 
L 144.933868 105.326506 
L 147.250501 107.206812 
L 147.523046 107.139252 
L 148.749499 106.169153 
L 151.747495 103.88493 
L 154.336673 102.189842 
L 156.789579 100.833007 
L 159.106212 99.8014 
L 161.559118 98.953834 
L 164.012024 98.34157 
L 166.328657 97.988965 
L 168.781563 97.84657 
L 171.234469 97.932895 
L 173.823647 98.249844 
L 176.821643 98.857505 
L 186.360721 101.000026 
L 195.082164 102.606245 
L 220.292585 106.914119 
L 222.472946 107.215749 
L 222.472946 107.215749 
" clip-path="url(#p3b24d9148b)" style="fill: none; stroke: #8c564b; stroke-opacity: 0.8; stroke-width: 0.8; stroke-linecap: square"/>
   </g>
   <g id="line2d_30">
    <path d="M 46 8.50399 
L 47.635271 9.835714 
L 49.270541 11.449308 
L 51.042084 13.537709 
L 54.857715 18.564677 
L 60.44489 25.933733 
L 65.623246 32.494402 
L 70.256513 37.926454 
L 78.705411 48.120677 
L 85.246493 56.378526 
L 91.787575 64.994062 
L 99.282565 75.22963 
L 111.547094 92.419248 
L 121.767535 106.745406 
L 121.767535 106.745406 
" clip-path="url(#p3b24d9148b)" style="fill: none; stroke: #c49c94; stroke-opacity: 0.8; stroke-width: 0.8; stroke-linecap: square"/>
   </g>
   <g id="line2d_31">
    <path d="M 46 10.840644 
L 48.316633 13.469219 
L 50.905812 16.748882 
L 54.04008 21.041284 
L 64.941884 36.492977 
L 72.981964 47.494745 
L 81.430862 59.359989 
L 90.288577 72.197912 
L 101.190381 88.42571 
L 113.318637 106.62861 
L 113.318637 106.62861 
" clip-path="url(#p3b24d9148b)" style="fill: none; stroke: #e377c2; stroke-opacity: 0.8; stroke-width: 0.8; stroke-linecap: square"/>
   </g>
   <g id="line2d_32">
    <path d="M 46 10.529966 
L 47.498998 11.477773 
L 48.997996 12.68399 
L 50.769539 14.423902 
L 52.9499 16.910084 
L 55.811623 20.564288 
L 72.028056 41.959457 
L 76.933868 48.030449 
L 83.066132 55.979007 
L 89.198397 64.307288 
L 96.420842 74.511732 
L 106.50501 89.189375 
L 118.496994 106.81177 
L 118.496994 106.81177 
" clip-path="url(#p3b24d9148b)" style="fill: none; stroke: #f7b6d2; stroke-opacity: 0.8; stroke-width: 0.8; stroke-linecap: square"/>
   </g>
   <g id="line2d_33">
    <path d="M 46 11.57637 
L 47.907816 13.546098 
L 50.088176 16.151332 
L 52.677355 19.608808 
L 62.488978 32.908582 
L 82.521042 58.580366 
L 90.016032 68.634201 
L 98.056112 79.794861 
L 117.134269 106.724345 
L 117.134269 106.724345 
" clip-path="url(#p3b24d9148b)" style="fill: none; stroke: #7f7f7f; stroke-opacity: 0.8; stroke-width: 0.8; stroke-linecap: square"/>
   </g>
   <g id="line2d_34">
    <path d="M 46 7.593248 
L 49.951904 12.314416 
L 52.677355 15.888812 
L 60.172345 26.06712 
L 66.849699 34.709325 
L 78.296593 49.061736 
L 86.064128 59.009223 
L 92.60521 67.77541 
L 100.645291 78.982194 
L 115.635271 99.929753 
L 120.677355 106.791884 
L 120.677355 106.791884 
" clip-path="url(#p3b24d9148b)" style="fill: none; stroke: #c7c7c7; stroke-opacity: 0.8; stroke-width: 0.8; stroke-linecap: square"/>
   </g>
   <g id="line2d_35">
    <path d="M 46 7.840621 
L 47.498998 8.986633 
L 49.270541 10.641486 
L 51.314629 12.875896 
L 53.767535 15.89763 
L 63.715431 28.404308 
L 67.39479 32.710894 
L 77.61523 44.253001 
L 84.292585 52.129265 
L 90.288577 59.534915 
L 96.693387 67.806135 
L 104.460922 78.206727 
L 125.446894 106.796609 
L 125.446894 106.796609 
" clip-path="url(#p3b24d9148b)" style="fill: none; stroke: #bcbd22; stroke-opacity: 0.8; stroke-width: 0.8; stroke-linecap: square"/>
   </g>
   <g id="line2d_36">
    <path d="M 46 8.628944 
L 47.635271 10.116452 
L 49.270541 11.923689 
L 51.450902 14.703262 
L 54.857715 19.481855 
L 61.807615 29.660009 
L 67.39479 37.572425 
L 73.799599 46.23429 
L 87.699399 64.862804 
L 93.967936 73.767412 
L 104.460922 89.198164 
L 111.819639 99.798055 
L 116.725451 106.675675 
L 116.725451 106.675675 
" clip-path="url(#p3b24d9148b)" style="fill: none; stroke: #dbdb8d; stroke-opacity: 0.8; stroke-width: 0.8; stroke-linecap: square"/>
   </g>
   <g id="line2d_37">
    <path d="M 46 7.379035 
L 48.452906 9.651127 
L 50.633267 11.954633 
L 53.358717 15.205079 
L 57.583166 20.127259 
L 61.943888 24.818957 
L 65.895792 28.733981 
L 69.711423 32.21131 
L 73.799599 35.640038 
L 78.296593 39.109922 
L 85.11022 44.021764 
L 90.288577 47.876715 
L 93.559118 50.593948 
L 96.693387 53.499568 
L 99.827655 56.718334 
L 103.507014 60.832794 
L 108.276553 66.534025 
L 120.132265 80.836341 
L 125.038076 86.317883 
L 129.671343 91.17303 
L 134.713427 96.1186 
L 140.164329 101.145709 
L 146.841683 106.98745 
L 147.250501 107.230255 
L 147.523046 107.117548 
L 154.064128 102.457702 
L 156.517034 101.143996 
L 158.833667 100.151595 
L 161.150301 99.403097 
L 163.466934 98.874971 
L 165.783567 98.568224 
L 168.236473 98.475431 
L 170.825651 98.613287 
L 173.687375 98.999985 
L 221.519038 107.182905 
L 221.519038 107.182905 
" clip-path="url(#p3b24d9148b)" style="fill: none; stroke: #17becf; stroke-opacity: 0.8; stroke-width: 0.8; stroke-linecap: square"/>
   </g>
   <g id="line2d_38">
    <path d="M 46 8.489725 
L 47.498998 9.645884 
L 48.997996 11.103615 
L 50.769539 13.149311 
L 53.903808 17.234082 
L 62.625251 28.707615 
L 66.713427 33.765946 
L 77.61523 46.778849 
L 84.02004 54.818585 
L 90.561122 63.383974 
L 97.91984 73.389005 
L 108.821643 88.631943 
L 121.767535 106.788982 
L 121.767535 106.788982 
" clip-path="url(#p3b24d9148b)" style="fill: none; stroke: #9edae5; stroke-opacity: 0.8; stroke-width: 0.8; stroke-linecap: square"/>
   </g>
  </g>
 </g>
 <defs>
  <clipPath id="p3b24d9148b">
   <rect x="46" y="2.16" width="214.2" height="110.0736"/>
  </clipPath>
 </defs>
</svg>
